<svg width="92" height="64" viewBox="0 0 92 64" fill="none" xmlns="http://www.w3.org/2000/svg">
<path d="M25.4428 54.0501C21.8051 54.0501 18.5269 53.5041 15.6083 52.4121C12.6897 51.2781 10.2152 49.7031 8.18485 47.6871C6.15451 45.6711 4.58945 43.3401 3.48968 40.6941C2.38991 38.0061 1.84003 35.1081 1.84003 32.0001C1.84003 28.8921 2.38991 26.0151 3.48968 23.3691C4.58945 20.6811 6.15451 18.3291 8.18485 16.3131C10.2575 14.2971 12.732 12.7431 15.6083 11.6511C18.5269 10.5171 21.8051 9.95006 25.4428 9.95006H32.2952V18.7701H25.6966C23.7085 18.7701 21.8897 19.1061 20.24 19.7781C18.6327 20.4501 17.2368 21.3951 16.0524 22.6131C14.9104 23.7891 14.0221 25.1751 13.3876 26.7711C12.7954 28.3671 12.4993 30.1101 12.4993 32.0001C12.4993 33.8901 12.7954 35.6331 13.3876 37.2291C14.0221 38.8251 14.9104 40.2321 16.0524 41.4501C17.2368 42.6261 18.6327 43.5501 20.24 44.2221C21.8897 44.8941 23.7085 45.2301 25.6966 45.2301H32.2952V54.0501H25.4428ZM54.0558 54.8061C51.3489 54.8061 48.8955 54.3861 46.696 53.5461C44.5388 52.7061 42.7199 51.5091 41.2394 49.9551C39.759 48.3591 38.6169 46.4901 37.8132 44.3481C37.0096 42.2061 36.6077 39.8751 36.6077 37.3551C36.6077 34.0791 37.2634 31.2231 38.5746 28.7871C39.9282 26.3511 41.7682 24.4401 44.0946 23.0541C46.4634 21.6681 49.1705 20.9751 52.216 20.9751C53.5271 20.9751 54.7538 21.1431 55.8958 21.4791C57.0802 21.8151 58.1377 22.3191 59.0683 22.9911C60.0411 23.6211 60.8448 24.3771 61.4793 25.2591H61.6696V8.06006H71.5041V37.2921C71.5041 40.8201 70.785 43.9071 69.3469 46.5531C67.9087 49.1991 65.8784 51.2361 63.2558 52.6641C60.6756 54.0921 57.6089 54.8061 54.0558 54.8061ZM54.0558 46.3641C55.5786 46.3641 56.8899 46.0071 57.9896 45.2931C59.1317 44.5371 59.9988 43.5291 60.591 42.2691C61.1832 40.9671 61.4793 39.5181 61.4793 37.9221C61.4793 36.3261 61.1832 34.8981 60.591 33.6381C59.9988 32.3781 59.1317 31.3911 57.9896 30.6771C56.8899 29.9211 55.5786 29.5431 54.0558 29.5431C52.5755 29.5431 51.2643 29.9211 50.1222 30.6771C48.9801 31.3911 48.113 32.3781 47.5208 33.6381C46.9286 34.8981 46.6325 36.3261 46.6325 37.9221C46.6325 39.5181 46.9286 40.9671 47.5208 42.2691C48.113 43.5291 48.9801 44.5371 50.1222 45.2931C51.2643 46.0071 52.5755 46.3641 54.0558 46.3641Z" fill="url(#paint0_linear_31_120)"/>
<path d="M83.4133 54.806C81.7214 54.806 80.2621 54.218 79.0354 53.042C77.851 51.824 77.2589 50.396 77.2589 48.758C77.2589 47.078 77.851 45.65 79.0354 44.474C80.2621 43.256 81.7214 42.647 83.4133 42.647C85.063 42.647 86.48 43.256 87.6644 44.474C88.891 45.65 89.5044 47.078 89.5044 48.758C89.5044 49.85 89.2294 50.858 88.6795 51.782C88.1297 52.706 87.3894 53.441 86.4589 53.987C85.5706 54.533 84.5554 54.806 83.4133 54.806Z" fill="white"/>
<defs>
<linearGradient id="paint0_linear_31_120" x1="46" y1="0.500058" x2="46" y2="63.5001" gradientUnits="userSpaceOnUse">
<stop offset="0.13" stop-color="#00BCE6"/>
<stop offset="0.84" stop-color="#D500F9"/>
</linearGradient>
</defs>
</svg>
